/* XPM */
static char *result[] = {
/* columns rows colors chars-per-pixel */
"115 115 74 1 ",
"  c #090E14",
". c #0D1216",
"X c #0E1419",
"o c #121517",
"O c #121816",
"+ c #13161A",
"@ c #15191D",
"# c #191B1E",
"$ c #161C21",
"% c #1A1E23",
"& c #1F1F28",
"* c #1C2126",
"= c #1E2329",
"- c #212327",
"; c #22262C",
": c #29272B",
"> c #24292E",
", c #292B2E",
"< c #272730",
"1 c #262B31",
"2 c #292E33",
"3 c #292F38",
"4 c #273233",
"5 c #2B3236",
"6 c #2E343A",
"7 c #2E393D",
"8 c #313337",
"9 c #31363D",
"0 c #33393E",
"q c #323740",
"w c #353B42",
"e c #393E45",
"r c #3A3F48",
"t c #364145",
"y c #394246",
"u c #374548",
"i c #3B444A",
"p c #3C494C",
"a c #3F4951",
"s c #41464D",
"d c #42494E",
"f c #404750",
"g c #454C52",
"h c #494E55",
"j c #464F58",
"k c #494F58",
"l c #465156",
"z c #4A5156",
"x c #475058",
"c c #4C535A",
"v c #4E585D",
"b c #50565C",
"n c #52595E",
"m c #4E5760",
"M c #4F5961",
"N c #505760",
"B c #545C63",
"V c #595E65",
"C c #595F68",
"Z c #566165",
"A c #596166",
"S c #576069",
"D c #5C636B",
"F c #5E686E",
"G c #5F6570",
"H c #5E6870",
"J c #61676E",
"K c #616A6F",
"L c #606770",
"P c #646C73",
"I c #686E75",
"U c #677177",
"Y c #687076",
"T c #6B7178",
/* pixels */
"wwweewh&kgerrreesey0eeeee0eeew8eweqeeeeeewh@<11555554645555512512422225555529*Ngweyyssseiiiyiiiiiuz,hgsysysyyyyirre",
"wwwwwes&ksreee0see0yeeeeeeewwwe8wqqqqqq8ers@5<2525656455552552252222558582287:kc0y0e00eeiiiipipyiily0sryyiiiiuuyewe",
"weewwwr&kfsesss0esseeeeeeeeeeweww8weq8eeee1@526566556646355555515222228528228$gheyeteeeeeeyuuyppypdpesysrysyyuyyree",
"ewweews%bfrs0s0seeeeeeeeweeeeeeeww8qq8e8we>X525554444444551513254122252222522#gkyeeeeye0eeytuuypppd0ssrryyysiiyyrwe",
"weeeeew#zgyysyyyeesseeeeeeeeeeeerqqqqq8rwe;@;2654446444654133345,14222222523,%ihdwww0eewweyyyyiiyps8srrryyysyirrwre",
"wweweee$0dppysyyseeeeeeeeeeeee8eq8rhq88qee<$*5445444444453443451222222222222;*igcwwq00wwwewyyyyyyys0rree0yyyiyyyeee",
"wweeeee&9sipiuiirerrreeeeeeeeeeeerh<q8qree,@*611544444554453121142,25,222228,%eshwwq99wwww0eeeeyt0s00eee0yreyrrewee",
"eweeeeq#;ypiipiisrrrrreeeweeeeeehr<8rqqrei,+=c>14451441352451141224225522255>$wyc0qq9790wwwweyee00000ee0eeeeeeeeeee",
"eereee9$1duiiiuuiieeeereeweee0g9:88qwweeer:@*Z1>=4444=4=11>414114>4142225255>&wwcq0096qqqwqqwwwww0858rww0eeeeeeeree",
"eeeeeee+4lwiiuyuiieweeeeeeew9w898<8qqeeees:$&F1===>4=4=4=>4>>1411111122582820$qqdq9666769q9wqwwwwwi2;33weewweeeeeee",
"eeewee6@,yiiyiiireewwwee9w962255338qwweeeV<&*B114=4=4=4=11>41411>>1121455855t%6qe9qq9q9790090wwq90s,&29w00wwweeeewe",
"wweeeg2#22Adwerywwq639ww321:22553888wwwreb2;=11,=====4=>1=>=>=11>11<2429689w0%<1g12weewq0w0w9wwqwf32%<qq000wqwqeeww",
"wwwrcJr$22vi5<;<=1;;<;;*&&**==,58q88qqrBgB,%&=LDd>=t0>>>>>>>>>111144555006e%*-25;&**;;;1,87w2<112ws<@15iw38383<3ewe",
"q9<222J@,g==;-*&***&&-*-&&=;=;;;<&&:<<<<;g0%=n**=***===========1====;=>=;;*=-;$<>==>;;==;<11==>=&<;2@11<&;;;&:&<23<",
"<<<<2;:O;,1111<<,12>%##%%-;;%##@##&:<<<2<<-+#:=*-#$##@#-;,,>141111=1<11>1;*#@O@%%%*><21<,11>>1*#####@@1;2<<2<<<222>",
"ceqkcnbczh6@X$++oytydcndzhi$@@zsskhhkbf39rgzz5zczstly,5pgllg*X*X@X@@@X$++o@%%@@11@>@XX@+@X@@@*<=O;-#o++++$@@@ofg9hz",
"ckccccccbzzccvnBBBnNNVJJbkbg+cIBvvMMvcgyerriirirvddcnnBvccbNz0oczUzlvxlvvvMMBBBSADSSZZMBBBBgssiu075292223389+cSckkz",
"aadpippinnzbcclyw900e00IbNhb$chJ36iiuiiiyisisiiipyyydyiyifdJdy#8zbUDxlapppppapggglcvMBZBBnnNgfreq552,1,2369q<cjskpi",
"iuppppiiutt000e00000w0wwIbhcccV9iruuurpiidaiiipidpdispdysddzgs#0gKippppppppuiiipyueewwwwqqweweuq972111111699;jaeeuu",
"iuipuppiptst00000000w0we0PNbckLrwwwueuppppisppfsddddspddsdlgdd#0dsuyppppppppupiuieeeqewrwwweweweeee521,2<229*pieiip",
"uppuppipiuytww9ww999w9wwweVgzgIeuttttuyiippiifaapafpfgdgggggdsO,dypypppppppppuuuueeertwwwwwwweerueri0411,2,5-ryyuii",
"ppypppppuuyy0wqw8e9wqwwweeCggrUuwttttuuippipiiapspfpgfgghggdgso8yippuppppupppupuiuuwwwuwewwwwretweuuuw7122<2&0etiui",
"uypppppputtywwq0e8e8wqwwwwCgseIqwtqttuuuiaipiafpafppsdgghggggioeyduppppppuuppuuuiuuwwttwueewwweettruuuiw0522&6wetuu",
"ppppppputywww0w09w8wqwewwwDgprJetttteerrpiiipspfppiigggggdsg-%#rpdtpppppuuuppuuuuuurttttwwtwwwuuuyuuuu1wyy55%5e0uui",
"yppppputt0t7q77q9wqewqwwqeVsrqD666wjewruppiifaappspppglcns=145@yieeiippyypiiiiiuuiieeuwurewwwwrweueutiw0uy95%50yyui",
"iuupputt0tt0www7e8w8wwqeweGrw6B66663cwuwwuipsiipapsdgggn<:150y@reeeiuppuyuuuuuiyuuueuttuuewwruuwueuttuuuyy65*50tuii",
"iiuputtttt00qwq98wqqwwwwwrbew8a66666qrawwuiassfispsggglB;567yy#0wbwiippuiiyuuuuuriureyyyruweuuetttwuytttyy52%2qeiuu",
"uuuuuw7w7qwq0wqqwwqewwwwwss8w639666q67epwqrifpspsspgglB#:67uyi#e9fweippuuuuuuuuyuuriueueueuueeetttwetttuyy0,&2getiu",
"uutt00ww0wq7qwqqq899wwwwee<60596q66766qqqwuuiiiiipfgdln>67wyew#939hiuuppuuuuutuuuuuuuyeyewwweueuqttwutttuty2=,pw0yp",
"yytttt7w0qq770q78823380we:;;66p97677q7qqwwrqiiriiipfpl#;70twiy@,qfDkitipuutuuyyuiyyuuwwweiwuequetttwtqtuy9cy=1ret0w",
"0ye0000ww777eg11<<&<;<0w<&<%<6vkkwqqeewq661eeriiiisslb;,0twuii+,1v62cZtytttyuwwieureerewwwwqqeweteeewttyy5,1=>cpy09",
",485tllnvBcdp<1<<<:;;;:;<<:&<is11<1==;1==*=&&;&;=<3qd4=40tess8@;g,,2224840sdszgsfpiww9677>111<gglpgil3=>;,1,#,4,,,,",
"$&&&<<<<3<2<<<<<11;;;*-;;>1@;31112&+$;&$#%:1=;==<;11p$967p111X$<<<,11<>==*@$$$%$%$++@@@#+#;%&-;1<1<11=$@+@#+@@+@#%#",
"@@+$$#+o@@@#%+##o#o@$$$@X%X@+XX+X@oo@+@@oXXX$$+@$XXX+ ..X+X++XXXXXX+XX+O.o@oo$X++@#+o@+++#@@@o@o@@$@$.XXooo+@$&Xo@@",
"vbNNNCVVVVbrerhspoBBBBBnnccgccvMMvchee2BCczckcMBMBmmcMvBBDSSSZDACBCNBnvlcc>#wd0euiissysyyyuq+&0ww00@@>PBDcpepfgakkb",
"9wfrfgNGGCVGVVJVgcNHDCBncy%griirrewwwqqcDDBBMcfxafaiuipxMCSCSDSSBCCmZBclBBc@q7geiiifsiyeeeh1&ewwwqw5@gxPliuuiytwww0",
"q0eweweeerr0rkkGggBBbgpye5>wqweueeew095bcnrreuuiiruueeewqi256990wwwewewiBge+09g95151,<14555;;t0070t0$lBvpiipiiree00",
"w9qeew8eewwwqqqkgsvbstew5%cqeueeeeew000ccIrwewu=5rwwwqq7ud659000wwwwwweregeo0e223111223255,*ytt076t0$jcgpiiuuiruww0",
"00wqwqqwwwwwrqqrribhe2,22$zweeueieeew98hcBeyiuu7piqwq0uvd6695900qq99qweewgi+0s2111<111134,;gt0008400%gxaiaiiiuesww0",
"999qwqwqwwwwqqrqh0*1@%2bhgwweeeeeiee880ddBwwuuqwieqquv6676695899999q99qewps@0s,2123141355;hie0076600&jciiiiiiyrs909",
"999009wqwweeqerqs0#ezzhsiqwwuweiuieq856siBeyut0wq7u774666636959939qq9qweqfg@0r22251<13364*u00778668t%sdyiiiiiesrw99",
"8909qwqwwqqqeqqqy0+gzzdiwwwwyyuereiw662dsbtwt0w77w3q636336685966q66q9qwe0ef+0w1121113466>*tw0074764u*yypiiiiiigww99",
"0090w9wwwwwwqrqrw00ghbhiwqqeeeiireew822iyztwt0w7q664334333636669666900weewe@983223145555*4770877440t,90ysiyyrgwwww8",
"808wwwqwwqeqeqqr0;8dcbdrwqeeyieyyiiw222e0gt0007q7663466366656666q66q00wee8r+88<21111455,%00777447478,09piisspreww8q",
"8q8e8wqwwwwwwwer9;,rddswweweeureiir92,<iwg076076474353336650669696699wwrq3w$62223112551=000666776655197isrrysewww00",
"w8q8qwe8wwwwwwwr9%,edsewqeeureiuiiw322,www0075664333513666959699w39q9qwww29@8622221215=,097647844654,>3irrsrseewq00",
"8weqw8qqqqwwwqwsw%*9reeweqerieirris322,69009655633332355666999q79999qwww823@2831<1115>=i07558647741><:3eerrreewww90",
"998wqwqqqwwwwwwg9+%9gee91weeiprieg8322:65000655533432666969699qwwqw9werwq3<@23333<311=5005557670411=&;2eeeewwqwwwq9",
"98ww0w9q9wwwwwwk4+*6SeewweeeiiiiiC3241<68s9w966655533999699999qwqegqqyrw82<@,1512144=*d5645566061>==&;1srewwwwwqw99",
"9ww9w99q9qwewwrN,O-2Veeeiruuipppeb3311<23V338996665699qq766999qwipcueyw9322@*d6651,,*0w5565466c>==*=$;1csspiewww009",
"8qqeq9999wqq3erk5*,:eBVw11;>67uvir225,,<sfs8695855627weyise9111;<15weeb922<+%*<9=<,=$40wytttpz>*====@;d5>,1,21;;:;:",
"<<<:<<<2<<<:2<<<h#;,c23:1<221<<<<<211s;wB<22332221<211<,<<<21<<1<21,222k<:2@%*&*=%*#.****%***$***=>=+;:;:;;,;:,<3<:",
"&2::2,22;:<,:&;9OOOy488O@o#####+++%-&:#@o++@@@O@+##O#,;#@$o@@oo@@#@sde;*@@#@@52,1,;;,,--:O####$@$##@###@OOO&o@@###o",
"bkccbi5$@+%wweereesszppppiaaapaagiuipipiry08i@ooool0*#**wzcjmmvcvcllz*dbnBBZAAAASDFAd2co;hdlhhnzvvvZZZSCJVs259gdhhh",
"sshhzBcg.#ecewrrttsuidppapgagagapddpppppeiss6<+PvZZZZZZDCCBBMMBBMBnBnDSDDDFFFFFJKKFZZhDbdDddgcccllzcvBBBnbd#,00dhhh",
"wrewq9Pzsyegc1:248448447566666766669932225y89=cDPSvlppppiyuuqq7ewww000uuyyreeyyyyyyysJndcgInbgww7690eiyiserg2800w9q",
"8wwqqwhh#0ey;2458474744847666565569y52,,>>1a3<sDuauauutiueeuuuiiieeeesew0yeteetteyyyyJ88hNVwwewweqqeeerreere8<wq9qw",
"ewwwwwqG;y0z2555748787787566465656y,21<>>><g23pCppaiieuewwweeeeeywegswwwe0000e000eeeyJe0hbgwewwwr8eq8qeqesewee99w9w",
"wweqwqqs2002556688878778666564557021111>>;;i<3gFuuuuieywwwwweweusgw66qww000e0e0te0y00Vy8hNswwwweq8eqeqrq00wse9wqqqw",
"wqqe8ew900e2555684787444745645662221,1>11,;;;>hvwuwueewwewwwqr6133wwq99w0e0e0000000eyhs8bbswwww0eq88qe8r00w9wsqq9q9",
"qe8ew9wwz94555757474744664464251141411>4>>>=;-yeuewwweqyeewe55779qq90000t000000000080s08hgsw8eee88eqqeqqqqe8wwwqw0w",
"eqeqw9wwh056555747664646464451124111>11>>>1=;*we76qqq00qwwi9qqq6q99w00ee0000770000008y08hsswee88qqeqqre8qqqe8www000",
"eq8eww0wh0055566664664465245554411411>>>>>,>;%#;,67669590wwqqqq6q9990wt00000808070095808rrr98wqqqr8q8qeqeqeq8wqw0e0",
"qr8ewww0<30466666767444554,,151,,2>1>11>=>>;>#0@;>;;:42,29wq09q999qq9w000080077000098s82:eeww8qq8q8eeq88eq8wewwqe0e",
"ee8eqqeq525595656755446641511114,1>11>1>=>>>;@5ec*%:;2<,;8000006090000q08007777708786092%0w00000qwqwqwqwqw9wqqeqwwq",
"eqeeee8ed,2558666655554514111522411,>11>>1>4&@2epcbkcDC>-;800000700000097767080070866552&0000000qwqwwqwq9w99wwqeeew",
"eeeeeeret;;5668656555555341211,1111114>1,>;5*$2yifsirsibi;,80008999560660605800676666611@8900090wq9wqqqq8e9ewwwweee",
"eeereeee,;;55566675552424431411,1,>>1>1>>>>0*@2wirriiispgn>;10079960906667600076666666><@26999988qw09wwqw98eweerewe",
"errrerse=,*;26285555554555221>1,>>111>1<>>;w*#;0rrrrsrssyyze2,00099965057500570646875y;<+55999095wwqwqqq8wwweerwerr",
"rsrreesr#;**2:235655554211511,>>,>>,>>>>>=*d*@=19wweeeereeyy;;>0009000007666965546545e;=@5809000000wwwwq99wwwewrrre",
"8qsssbhh5-=-eyse0555895955564>>1>1>>>>>;=>i6$@*1236336000eew0$:<000000tsse095,;=-;;;;h0%#4900000w0000wwwwqwweqerr<<",
"<<<<:<::,;;,;%$%*****&-%%%$**&*=11*=*==&=#**w@@,221<1<<:2522,22:,:,,;&--*%%*%*%&*----*w&-,,;;;;-=*;-&&**:&:&:<<<:<:",
"#ooo@@###@#++$$$#@+OOO@@@++#+##O@o@-:;::2<@@@@%@+o:<222,:#o@$%+#o#O++++#%--;:2;&@o;,%:;+O#2:,,:,,,,,,>,:-:::,:::<:<",
"hhhbnnnnbnnceigkbbVVVZbBnnb@#*6BBcsbBnBCh  - ;8nBbhinnhnnnnVSSVVVt+++O##oo+oo+oX@=;5dggi9sd#+hvzznnvwtwqgznnnzvnbbb",
"kkhhhbcckbVCCCDFJVDDBBvlccz@oBYvDVABCCJJkkdgsgisisggizochhzVCCSSFBhho@swwwww00525706eeueyweO;vPNVnAAZBBbZZnzZZAnkkk",
"hshhBBVVCCCCBvccczllcpaagzn#$cDIFDBggdseerrfssssgghgd55chhggfapapPccrw9gi5455455122,5;5=B90@*jDCyu4456uuutyyttyysrs",
"ery0yy0yiiippipppupppupppll8@cBF900weeeypssgsgdgghzg0*zcghdggipipcDcy90ww455555222215>>>1s9@;gS7tyyuuttpitiupyyyre0",
"reyy0yttyeyyisiyyiyypppppall@cZy000eeirrsisssssggggw,cchkpggdiippgAz09ww5455465511111>>=;69*9gMw0yuyupyyppysypyyrry",
"eeeytttyyyttyyeeiyyipppppplg@cB6000wyiieiiifrgggggd;@Dzlr7dgpuppipzZ005565456544151154;;;;s:wsBqttuuyutyppppppppeyt",
"reyyytt0eytttteweyuyupppppgg$vA6009wwiriessssgsdgd2:Sllgcgzggiupiygcb89545454554544154=;;=y2wgg0tttyuuuupypppptpytt",
"ytyutttteuuwwuwwyyeyiupppild#xZ000000wttesdsdgsgdi><Ylhllllppupptypcg98544443433441141=>==41qii7wtuttyuiuitpuuytyyt",
"tyytttttuwwrrwwreeeyuiupppdd$cB080500weteissfsdggi,$Klddplapppputtigde59344333131511131====176e7ww0tyyiuutttuuytttt",
"yuyyyttteqwwwwwweeeeyiiuiupt$gl085580w0t0teisgssss5*Khlppppupppttyysws5s4433443143111==1==>492w77600yypuyuttytyyytt",
"tyuyuutttwwwwwwwewueyuupippw$lc0580900wteeeyigsgdy0:Iddppuppppitteys90501333111331111=1===>487e67662ypyiuputyuyyttt",
"yyutuyttw50wwwwuqeewuuiypid0$gaq86900t0w0yteysisssy:vddpiiippuuit0yy4=1111111113111;;;====6,25q76222-vpiuipuypyttyt",
"yuyuyttt0>5pwwwweeeeeuyuuiiw@ipe066690w0eteeryissyw:Olpipippppuy0y0y,&><1111<11;>11>3;1==*0<,5095221,=lxypuuptuttut",
"yyuttytwtwdiwrewwweeuyyiuti8@iey099080ww00yeeeyyyrw;.dipiiupppyty00e1$;w3111>>1>>>1>;1;1==6:*5066241>>=4,tttyuuuttt",
"yttuyttwtweewweeeueeeyyyuyr8$eei0050560w0y0reeyeee026duipupuyy0w0000;$&r33<111;>>>>>;;1=;=5;@>665521>,>=->>uuyyyytt",
"ttttt0ttwuewwweweyreyryuyy5>*9wge899999eqwweywtw009#wypyyyuyytw000ww:@;g2223<<>>>>>>>;;;,=>>@16763511,>>,;-yttyyttt",
"0t0ttt0teeeeweererierriie2>1$7w9Crq9q8qwwwwwtttwt080wutt7005786682rk2+5B332<1<<1>>>1>;;;10;;X12765514111,;;-tttyttt",
"0000770tepgeuiriiriereyi:;;<$33Nv;,5qeeiiiww0w955e,550007515,5qq0e9k>+1gcee0q6311;1==>,;*&e=@,;65546w22>>,;;y0t0800",
"4,4,,,>:=>==1=<*-;:;5ec==;1;%<ew=;==&&&&*&%&&-&&&-*->,;-====>>>=-<111@1k;-*&&&*===**&*&#&**+@2-&*=-=*-*:;,;-#844,,,",
",,,,,->-;;;-;>>;;>;;,>,*#++@+;:;;:;;;;;;;;:;:;;;>=>====>;,,,-#@oo@%,o@#%-;;;;;;;;;;=;;-&*=*+o51*****==;;>=>>%:,,,,,",
"4;*O*>%Oo+o$=#++@@*,,22;=;o@%;:222=-**%@#$X@o.@X+@@+#@X*@+ 5080901,;66-@%o%@@@@@$$X3+#X7006*=*3%O#X.***=**470005700",
"pt774tplZZFZlzo+zvlgpgsg0622<2242ww0wwedlggzzcbnBBnnd+zUZnZBZBncBcgaiuaipppgnnxvvvxg@+zDcnksgjjvbvvvvnnnnbnnnnnbbzz",
"etttututdlZKFYu.nUZPzsyiidbi72599wwyyigddsgdsddlnFnBl#cnIKKDddssiuiuppppppppiipagBjui+hFKnrepppiputupiu007668240t0t",
"tyytyyyppipzIdl.gBKpppysyyrednnbggsrrsgsssssrsrresJkh#kkTqeesyyyyyippppuppppuppuyyyrs+hDqq0qwpiupppiupuu00000090tet",
"t0tyyipyippdIddOgIdppuyyyyryerrwree0wrsssrrrrrr0wweVh#bBTwww0tetiyippipppppppppuytiws+gL9q0wwppiuiuttutuy00000000ey",
"tytyuyupuispPpg+lKiippuyee0ewyryyerwwwqwwwreewe0qwqbh+bNIwwweteryiyppppippppppuuytry9XfI00000tppiyuueutey00000900ee",
"00ytiuuipuydDipXlZppypppeee00809000w99wwwweeewewwqwbh+bBPw9weeyryiiippipuppppppyyte0w+sP000q0ttupuyyuuwu00e000999w0",
"t00yypuiyuppGuiXzZpipppuy0e9909900qqq9qqwqeeeeewwwwbg@bnJqw8eeeeyiiiappppppipypuye0e6*0D0000007weupeeeieww0w099090w",
"0yee0tysppppBee+gZpppdyt00w79999w0wq883q8wqewewewwwhg#bbJ9w9werreiuiauauupppupiuyr00589c900000009qqeeqwwwwwwww0900w",
"00e0tytyppppcee+iBpppytt000tww77er0338338qw89weweeefg$0zg99w9wrreuiipauapppppiiirw08289d690070569qqqqeqwewwwww0900w",
"e00000typypppee+idppptt00t0wwww7V9883q8q8qw9w9reweesg@sge88eeeweriiiuiaupupisyiee0952&6i69605090990709qewww9990000w",
"qww000erydpyd00Ogfpirww76ttq00lB+,828338q8qqqweereesd#s0e3qqewreruiiiuipiuiifreeww92<%59896683676q699qqqw0999999wew",
"wqwwwweripppp06@gviiwwt777qqwy,*<228q83qqqqqweeeeress+see88qww8rrriiiiuiaiiireewww92:#;65568666966qq7999q99997q9www",
"wqwweeeiipppde5@3Buuwtq77twwu@><22393383qwqwweweserrd:0rq38qwwqswuuiiriiiipreewwwq022$;<2256523866q669q68qq99q999ww",
"wwwweesriiydue5+1ciwwqqq70qw%,2222338q90wwewweeeeirru09yq3q8wwwwuwruruiirreewwqwww92:&-02222262863666636q898999qq0w",
"wweweerririiyB2@1ci77667770$*<22212532899weeeeerggfgr83w8888wwwwrrurrieerwwwwwwwwwq32;;1b222338336656633697q000070w",
"88wesswege7=*62+<ke9076e56w#;:2222223829esrw88:&&&&;8&#&<w8qsiwwwrragffgfgrrwwwwwr9<1@*=2bggiirq9236653q6wqqw<>,<><",
"<<<<<;&:&;=<:<2+991;;===;1%*:2222225<88&<&&&&&&&&<;:&@+&&&&&&&&&==*&&;&<:<&;&&&&&&&&1+*<=<<&&=*-;*=;;<><<<<11<1,,<,",
"+###@#@@+$@@+#@#+$$#***$&@@+++%%$$#@%$$$#&&&&+##@@o#O@@$$$$$$&;;;;*$$%<<2<&&$@@@$@$@$@$-$$$$+$$@&&=;;1<*<<1=1;1*&$@",
"kkhkhh%#+Jkhkhzzhzzzzzzzhkhhzbgzzzkbcccckbb@0rw00000www0e00w0wwwewihey0000ee2+$eczchhkhkzzzhzczhlzz#@%sgczzcccszvbh",
"0wwwwwd+bVJVchdsyerrwwwwwwehbbkbcccckhgiskb rni580665255555285659q0q00e0eeeee*hCVBcghhhgzcbckccckjg$*vDbhhghzgggrrw",
"wwwwwwh%bhNereweeeeeeeeeeewww0w00wwewewwewro,s2228555556556522422222,2858555w&hneeeeyeeyysyiyiuuiid*0gbiiriiiyeirey"
};
